<?xml version="1.0" encoding="utf-8"?>
<!-- Generator: Adobe Illustrator 16.0.0, SVG Export Plug-In . SVG Version: 6.00 Build 0)  -->
<!DOCTYPE svg PUBLIC "-//W3C//DTD SVG 1.1//EN" "http://www.w3.org/Graphics/SVG/1.1/DTD/svg11.dtd">
<svg version="1.1" id="Layer_1" xmlns="http://www.w3.org/2000/svg" xmlns:xlink="http://www.w3.org/1999/xlink" x="0px" y="0px"
	 width="59.237px" height="67.41px" viewBox="26.95 12.759 59.237 67.41" enable-background="new 26.95 12.759 59.237 67.41"
	 xml:space="preserve">
<g id="Group_9918" transform="translate(-138 -885)">
	<g id="Group_9903">
		<path fill="#2B6CB0" d="M215.595,916.489H164.95v-18.73h50.645V916.489z M168.95,912.489h42.645v-10.73H168.95V912.489z"/>
		<path fill="#2B6CB0" d="M191.045,936.584h-4v-7.365c0.067-3.822,3.087-6.841,6.875-6.909l23.252-1.226
			c1.589-0.102,2.885-1.381,3.016-2.984v-7.293c-0.036-0.841-0.761-1.593-1.668-1.678l-5.23,0.396l-0.303-3.988l5.484-0.416
			l0.117,0.004c3.017,0.124,5.476,2.584,5.598,5.601l0.002,7.51l-0.004,0.064c-0.232,3.631-3.146,6.545-6.778,6.778l-23.345,1.229
			c-1.693,0.031-2.987,1.325-3.016,2.947V936.584z"/>
		<path fill="#2B6CB0" d="M190.483,965.168h-2.876c-3.018,0-5.472-2.454-5.472-5.471v-19.641c0-3.018,2.454-5.473,5.472-5.473h2.876
			c3.018,0,5.473,2.455,5.473,5.473v19.641C195.955,962.714,193.5,965.168,190.483,965.168z M187.607,938.584
			c-0.812,0-1.472,0.66-1.472,1.473v19.641c0,0.811,0.66,1.471,1.472,1.471h2.876c0.813,0,1.473-0.66,1.473-1.471v-19.641
			c0-0.813-0.66-1.473-1.473-1.473H187.607z"/>
	</g>
</g>
</svg>
